# File created by Blade
# Date/Time:  Fri Jan 16 17:25:22 2015
# Frame Rate: 120.000 fps
#------------------------------------------------------
:FULLY-SPECIFIED
:DEGREES
1431
root -5.691867 35.189633 -9.366826 0.386530 -6.138137 -5.766303
Spine -2.938467 -0.597373 10.001692
Head 1.332224 7.964469 -7.546130
LeftShoulder -25.453355 14.337604 6.396425
LeftArm 26.972198 -58.270383 -35.620636
LeftForeArm 20.687775 0.000000 4.778049
LeftHand -7.727232 -0.000000 0.473156
LeftHandThumb1 -26.253704 0.000000 33.147579
RightShoulder -10.002599 16.108928 -24.868714
RightArm -4.798417 20.501625 16.294258
RightForeArm -35.727657 -0.000000 17.093617
RightHand -9.722294 -0.000000 3.989435
RightHandThumb1 -24.326973 -0.000000 -32.862282
LeftUpLeg 11.075743 14.636517 6.995050
LeftLeg -9.646676 -0.000000 0.000000
LeftFoot -16.090873 28.669287 -9.443195
LeftToeBase 22.279361 -0.000000 -0.000000
RightUpLeg 7.369100 -5.358561 2.418206
RightLeg -4.492430 -0.000000 0.000000
RightFoot -5.692122 -24.414276 6.652275
RightToeBase 13.539179 -0.000000 -0.000000
1432
root -5.692610 35.189381 -9.366667 0.399825 -6.146126 -5.770432
Spine -2.947398 -0.598252 9.994964
Head 1.342233 7.984901 -7.518527
LeftShoulder -25.472542 14.330079 6.412216
LeftArm 27.020268 -58.284883 -35.669843
LeftForeArm 20.705091 -0.000000 4.799652
LeftHand -7.741335 0.000000 0.602212
LeftHandThumb1 -26.253704 0.000000 33.147579
RightShoulder -9.993950 16.102947 -24.870427
RightArm -4.782041 20.437761 16.308863
RightForeArm -35.714774 -0.000000 17.119957
RightHand -9.730469 -0.000000 3.966321
RightHandThumb1 -24.326973 -0.000000 -32.862282
LeftUpLeg 11.066298 14.649439 6.998283
LeftLeg -9.650032 -0.000000 0.000000
LeftFoot -16.084621 28.662406 -9.428873
LeftToeBase 22.261356 -0.000000 -0.000000
RightUpLeg 7.364016 -5.311093 2.425648
RightLeg -4.510876 -0.000000 0.000000
RightFoot -5.690795 -24.431382 6.715755
RightToeBase 13.455295 -0.000000 -0.000000
1433
root -5.694065 35.189166 -9.366474 0.408020 -6.149880 -5.771875
Spine -2.957671 -0.590326 9.974290
Head 1.374438 7.969262 -7.467442
LeftShoulder -25.445131 14.307693 6.450885
LeftArm 26.980120 -58.303101 -35.639460
LeftForeArm 20.751165 -0.000000 4.804932
LeftHand -7.776693 -0.000000 0.290293
LeftHandThumb1 -26.253704 0.000000 33.147579
RightShoulder -9.988772 16.088614 -24.856870
RightArm -4.768293 20.416250 16.314307
RightForeArm -35.727467 -0.000000 17.144668
RightHand -9.739059 -0.000000 3.876108
RightHandThumb1 -24.326973 -0.000000 -32.862282
LeftUpLeg 11.060906 14.634627 7.000763
LeftLeg -9.647411 -0.000000 0.000000
LeftFoot -16.068584 28.683412 -9.382137
LeftToeBase 22.270524 -0.000000 -0.000000
RightUpLeg 7.361094 -5.319675 2.428795
RightLeg -4.519414 -0.000000 0.000000
RightFoot -5.684844 -24.422894 6.661908
RightToeBase 13.512027 -0.000000 -0.000000
1434
root -5.694694 35.189448 -9.366482 0.416415 -6.157121 -5.773704
Spine -2.970089 -0.587554 9.965841
Head 1.409080 7.952355 -7.450246
LeftShoulder -25.428558 14.299337 6.459523
LeftArm 26.972899 -58.350054 -35.624560
LeftForeArm 20.754352 0.000000 4.816246
LeftHand -7.709017 -0.000000 0.303779
LeftHandThumb1 -26.253704 0.000000 33.147579
RightShoulder -9.975358 16.061527 -24.818859
RightArm -4.728413 20.359925 16.282418
RightForeArm -35.684797 -0.000000 17.144256
RightHand -9.724843 -0.000000 3.829391
RightHandThumb1 -24.326973 -0.000000 -32.862282
LeftUpLeg 11.056456 14.640848 6.999906
LeftLeg -9.654497 -0.000000 0.000000
LeftFoot -16.085074 28.672502 -9.436710
LeftToeBase 22.248774 -0.000000 -0.000000
RightUpLeg 7.354163 -5.310648 2.431757
RightLeg -4.521302 -0.000000 0.000000
RightFoot -5.680363 -24.424635 6.675163
RightToeBase 13.481213 -0.000000 -0.000000
1435
root -5.694869 35.189332 -9.365954 0.425494 -6.173078 -5.775473
Spine -2.975652 -0.575565 9.959708
Head 1.419060 7.942238 -7.423438
LeftShoulder -25.432163 14.291817 6.467256
LeftArm 27.006774 -58.393092 -35.655766
LeftForeArm 20.786988 -0.000000 4.841772
LeftHand -7.771787 0.000000 0.356564
LeftHandThumb1 -26.253704 0.000000 33.147579
RightShoulder -9.977777 16.058518 -24.824801
RightArm -4.701949 20.322553 16.294482
RightForeArm -35.691820 -0.000000 17.152276
RightHand -9.770084 -0.000000 3.764267
RightHandThumb1 -24.326973 -0.000000 -32.862282
LeftUpLeg 11.055866 14.659223 7.000192
LeftLeg -9.662413 -0.000000 0.000000
LeftFoot -16.084718 28.677158 -9.434514
LeftToeBase 22.283895 -0.000000 -0.000000
RightUpLeg 7.343054 -5.307546 2.433200
RightLeg -4.518937 -0.000000 0.000000
RightFoot -5.684075 -24.407321 6.707987
RightToeBase 13.480571 -0.000000 -0.000000
1436
root -5.695233 35.189276 -9.365776 0.430394 -6.177957 -5.778978
Spine -2.974048 -0.568188 9.955762
Head 1.424868 7.920864 -7.405223
LeftShoulder -25.417859 14.263147 6.490389
LeftArm 26.987625 -58.424594 -35.652654
LeftForeArm 20.792127 -0.000000 4.864536
LeftHand -7.767687 -0.000000 0.347298
LeftHandThumb1 -26.253704 0.000000 33.147579
RightShoulder -9.977931 16.071302 -24.827782
RightArm -4.701745 20.276887 16.281274
RightForeArm -35.716090 0.000000 17.160866
RightHand -9.757171 0.000000 3.759804
RightHandThumb1 -24.326973 -0.000000 -32.862282
LeftUpLeg 11.048005 14.660606 7.003671
LeftLeg -9.654438 -0.000000 0.000000
LeftFoot -16.090477 28.684417 -9.434184
LeftToeBase 22.256638 -0.000000 -0.000000
RightUpLeg 7.338901 -5.297470 2.437716
RightLeg -4.517963 -0.000000 0.000000
RightFoot -5.682093 -24.421657 6.668841
RightToeBase 13.545461 -0.000000 -0.000000
1437
root -5.695937 35.189415 -9.365366 0.437358 -6.188003 -5.777996
Spine -2.979532 -0.545208 9.939135
Head 1.438084 7.870561 -7.380028
LeftShoulder -25.394264 14.260975 6.502942
LeftArm 26.988767 -58.457102 -35.640662
LeftForeArm 20.788637 -0.000000 4.854488
LeftHand -7.758128 -0.000000 0.353118
LeftHandThumb1 -26.253704 0.000000 33.147579
RightShoulder -9.985644 16.062117 -24.816193
RightArm -4.687090 20.262538 16.264733
RightForeArm -35.733524 0.000000 17.162324
RightHand -9.808889 -0.000000 3.781101
RightHandThumb1 -24.326973 -0.000000 -32.862282
LeftUpLeg 11.047857 14.666376 7.002606
LeftLeg -9.661560 -0.000000 0.000000
LeftFoot -16.089255 28.684649 -9.440766
LeftToeBase 22.281992 -0.000000 -0.000000
RightUpLeg 7.332111 -5.295536 2.437945
RightLeg -4.520055 -0.000000 0.000000
RightFoot -5.696122 -24.415955 6.681691
RightToeBase 13.545963 -0.000000 -0.000000
1438
root -5.695763 35.189615 -9.364505 0.439739 -6.198948 -5.779173
Spine -2.976787 -0.545957 9.938076
Head 1.439815 7.852258 -7.375988
LeftShoulder -25.394637 14.251723 6.506279
LeftArm 26.963563 -58.482400 -35.614571
LeftForeArm 20.773977 -0.000000 4.867691
LeftHand -7.871181 -0.000000 0.292235
LeftHandThumb1 -26.253704 0.000000 33.147579
RightShoulder -9.976181 16.059420 -24.815131
RightArm -4.676077 20.270604 16.254893
RightForeArm -35.775653 -0.000000 17.179638
RightHand -9.850023 -0.000000 3.779283
RightHandThumb1 -24.326973 -0.000000 -32.862282
LeftUpLeg 11.048550 14.666579 6.998528
LeftLeg -9.663814 -0.000000 0.000000
LeftFoot -16.051790 28.730998 -9.389300
LeftToeBase 22.238029 -0.000000 -0.000000
RightUpLeg 7.330609 -5.286223 2.438143
RightLeg -4.522696 -0.000000 0.000000
RightFoot -5.679840 -24.393667 6.706938
RightToeBase 13.460343 -0.000000 -0.000000
1439
root -5.695304 35.189282 -9.364329 0.444515 -6.203886 -5.780418
Spine -2.970517 -0.541959 9.937415
Head 1.426198 7.825201 -7.371908
LeftShoulder -25.397888 14.238114 6.519544
LeftArm 26.980604 -58.504757 -35.639320
LeftForeArm 20.830124 -0.000000 4.894961
LeftHand -7.822365 -0.000000 0.413521
LeftHandThumb1 -26.253704 0.000000 33.147579
RightShoulder -9.981398 16.080225 -24.830574
RightArm -4.678124 20.251143 16.249265
RightForeArm -35.810445 0.000000 17.204081
RightHand -9.917968 -0.000000 3.800086
RightHandThumb1 -24.326973 -0.000000 -32.862282
LeftUpLeg 11.046957 14.664600 6.996735
LeftLeg -9.668258 -0.000000 0.000000
LeftFoot -16.051405 28.745478 -9.376325
LeftToeBase 22.246015 -0.000000 -0.000000
RightUpLeg 7.323334 -5.290385 2.437277
RightLeg -4.517918 -0.000000 0.000000
RightFoot -5.687721 -24.389497 6.719231
RightToeBase 13.493779 -0.000000 -0.000000
